<svg width="363" height="363" viewBox="0 0 363 363" fill="none" xmlns="http://www.w3.org/2000/svg">
<path d="M181.5 181.5V1" stroke="#C084FC"/>
<path d="M181.5 181.5L353.166 125.723" stroke="#C084FC"/>
<path d="M181.5 181.5L287.595 327.528" stroke="#C084FC"/>
<path d="M181.5 181.5L75.4048 327.528" stroke="#C084FC"/>
<path d="M181.5 181.5L9.83435 125.723" stroke="#C084FC"/>
<path d="M181.5 362C281.187 362 362 281.187 362 181.5C362 81.8126 281.187 1 181.5 1C81.8126 1 1 81.8126 1 181.5C1 281.187 81.8126 362 181.5 362Z" stroke="#C084FC"/>
<path d="M181.5 325.9C261.25 325.9 325.9 261.25 325.9 181.5C325.9 101.75 261.25 37.1 181.5 37.1C101.75 37.1 37.1 101.75 37.1 181.5C37.1 261.25 101.75 325.9 181.5 325.9Z" stroke="#C084FC"/>
<path d="M181.5 289.8C241.312 289.8 289.8 241.312 289.8 181.5C289.8 121.688 241.312 73.2 181.5 73.2C121.688 73.2 73.2 121.688 73.2 181.5C73.2 241.312 121.688 289.8 181.5 289.8Z" stroke="#C084FC"/>
<path d="M181.5 253.7C221.375 253.7 253.7 221.375 253.7 181.5C253.7 141.625 221.375 109.3 181.5 109.3C141.625 109.3 109.3 141.625 109.3 181.5C109.3 221.375 141.625 253.7 181.5 253.7Z" stroke="#C084FC"/>
<path d="M181.5 217.6C201.438 217.6 217.6 201.437 217.6 181.5C217.6 161.563 201.438 145.4 181.5 145.4C161.563 145.4 145.4 161.563 145.4 181.5C145.4 201.437 161.563 217.6 181.5 217.6Z" stroke="#C084FC"/>
<g style="mix-blend-mode:multiply">
<path d="M181.372 98.8499L330.522 134L244.689 268.472L115.19 272.767L62.8487 142.948L181.372 98.8499Z" fill="#D8B4FE"/>
<path d="M181.372 98.8499L330.522 134L244.689 268.472L115.19 272.767L62.8487 142.948L181.372 98.8499Z" stroke="#C084FC" stroke-width="2"/>
</g>
<g style="mix-blend-mode:multiply">
<path d="M181.5 47.4521L290.053 146.229L227.527 244.85L159.657 211.564L42.6527 136.386L181.5 47.4521Z" fill="#D8B4FE"/>
<path d="M181.5 47.4521L290.053 146.229L227.527 244.85L159.657 211.564L42.6527 136.386L181.5 47.4521Z" stroke="#9333EA" stroke-width="2"/>
</g>
</svg>
