<svg width="25" height="24" viewBox="0 0 25 24" fill="none" xmlns="http://www.w3.org/2000/svg">
<path d="M17.142 19.8635L1.08253 8.78565C-0.544904 7.6631 0.00831464 5.32578 2.03768 4.77614L19.106 0.143603C19.4676 0.0131395 19.855 -0.0292113 20.2363 0.0200682C20.6174 0.0693476 20.9814 0.208834 21.2979 0.426953C21.6144 0.645071 21.8743 0.935529 22.0561 1.27422C22.2378 1.61291 22.3362 1.99006 22.343 2.37438L21.3314 18.0839C21.2115 19.9485 18.7694 20.986 17.142 19.8635Z" fill="#94A3B8"/>
<path d="M12.0484 22.5978L2.58729 4.09547C2.37102 3.6722 2.27585 3.1974 2.31228 2.72347C2.3487 2.24954 2.51531 1.79487 2.79372 1.40961C3.07214 1.02435 3.45154 0.723466 3.8901 0.540134C4.32865 0.356802 4.80932 0.29815 5.27909 0.370651L22.8129 3.07676C23.2166 3.13907 23.5997 3.29631 23.9308 3.53555C24.2619 3.77479 24.5314 4.0892 24.7173 4.45291C24.9032 4.81663 25.0001 5.21928 25 5.62774C24.9999 6.0362 24.9029 6.43883 24.717 6.80248L16.6398 22.5987C16.4229 23.0208 16.0938 23.3749 15.6888 23.6221C15.2837 23.8693 14.8184 24 14.3438 24C13.8693 23.9999 13.404 23.869 12.999 23.6217C12.594 23.3742 12.2652 23.02 12.0484 22.5978Z" fill="#94A3B8"/>
<path d="M17.8156 6.54532L14.449 6.00012L10.3156 7.17771L11.9654 10.5643L15.8288 13.3616C15.9141 13.4226 16.0078 13.4693 16.1067 13.5001L17.5742 10.4891L17.8156 6.54532Z" fill="white"/>
</svg>
